<?xml version="1.0" standalone="no"?>
<!DOCTYPE svg PUBLIC "-//W3C//DTD SVG 20010904//EN"
 "http://www.w3.org/TR/2001/REC-SVG-20010904/DTD/svg10.dtd">
<svg version="1.0" xmlns="http://www.w3.org/2000/svg"
 width="700.000000pt" height="700.000000pt" viewBox="0 0 700.000000 700.000000"
 preserveAspectRatio="xMidYMid meet">
<metadata>
Created by potrace 1.11, written by Peter Selinger 2001-2013
</metadata>
<g transform="translate(0.000000,700.000000) scale(0.100000,-0.100000)"
fill="#000000" stroke="none">
<path d="M773 6944 c-153 -31 -308 -155 -373 -299 -53 -115 -50 65 -50 -3170
0 -3296 -5 -3040 61 -3175 64 -131 219 -248 368 -279 77 -16 5324 -16 5402 0
77 16 185 70 245 123 71 63 133 162 161 258 l23 80 0 2997 c0 3218 3 3038 -47
3156 -63 149 -213 271 -378 309 -87 19 -5317 20 -5412 0z"/>
</g>
</svg>
